<svg width="360" height="60" viewBox="0 0 360 60" fill="none" xmlns="http://www.w3.org/2000/svg">
<g clip-path="url(#clip0_1733_6314)">
<rect width="360" height="60" fill="white"/>
<circle cx="30" cy="30" r="30" fill="#A6C9FF"/>
<g clip-path="url(#clip1_1733_6314)">
<path d="M48 30.5C48 20.835 40.165 13 30.5 13C20.835 13 13 20.835 13 30.5C13 39.2346 19.3995 46.4746 27.7656 47.7874V35.5586H23.3223V30.5H27.7656V26.6445C27.7656 22.2586 30.3783 19.8359 34.3756 19.8359C36.2897 19.8359 38.293 20.1777 38.293 20.1777V24.4844H36.0863C33.9125 24.4844 33.2344 25.8334 33.2344 27.2188V30.5H38.0879L37.312 35.5586H33.2344V47.7874C41.6005 46.4746 48 39.2346 48 30.5Z" fill="black"/>
</g>
<circle cx="90" cy="30" r="30" fill="#F2D6E9"/>
<path d="M90.5103 16.152C95.1888 16.152 95.7428 16.1725 97.5828 16.2545C99.2927 16.3298 100.216 16.6169 100.832 16.8562C101.646 17.1707 102.234 17.5536 102.843 18.1621C103.458 18.7775 103.834 19.3587 104.149 20.1723C104.389 20.7877 104.676 21.7175 104.751 23.42C104.833 25.2661 104.854 25.8199 104.854 30.4897C104.854 35.1664 104.833 35.7203 104.751 37.5595C104.676 39.2688 104.389 40.1918 104.149 40.8072C103.834 41.6208 103.451 42.2088 102.843 42.8173C102.227 43.4327 101.646 43.8088 100.832 44.1233C100.216 44.3626 99.2859 44.6497 97.5828 44.7249C95.736 44.807 95.1819 44.8275 90.5103 44.8275C85.8317 44.8275 85.2777 44.807 83.4378 44.7249C81.7278 44.6497 80.8044 44.3626 80.1888 44.1233C79.3748 43.8088 78.7866 43.4259 78.1778 42.8173C77.5622 42.202 77.186 41.6208 76.8714 40.8072C76.632 40.1918 76.3447 39.262 76.2695 37.5595C76.1874 35.7134 76.1669 35.1596 76.1669 30.4897C76.1669 25.8131 76.1874 25.2592 76.2695 23.42C76.3447 21.7107 76.632 20.7877 76.8714 20.1723C77.186 19.3587 77.5691 18.7707 78.1778 18.1621C78.7934 17.5468 79.3748 17.1707 80.1888 16.8562C80.8044 16.6169 81.7346 16.3298 83.4378 16.2545C85.2777 16.1725 85.8317 16.152 90.5103 16.152ZM90.5103 13C85.7565 13 85.1614 13.0205 83.2941 13.1026C81.4337 13.1846 80.1546 13.4854 79.0465 13.9162C77.8906 14.3675 76.9124 14.9623 75.9412 15.94C74.9631 16.9109 74.368 17.8887 73.9166 19.0373C73.4856 20.1518 73.1847 21.4235 73.1026 23.2833C73.0205 25.1567 73 25.7515 73 30.5034C73 35.2553 73.0205 35.8502 73.1026 37.7167C73.1847 39.5765 73.4856 40.8551 73.9166 41.9627C74.368 43.1182 74.9631 44.0959 75.9412 45.0668C76.9124 46.0377 77.8906 46.6394 79.0397 47.0838C80.1546 47.5146 81.4268 47.8154 83.2873 47.8974C85.1546 47.9795 85.7497 48 90.5034 48C95.2572 48 95.8523 47.9795 97.7196 47.8974C99.58 47.8154 100.859 47.5146 101.967 47.0838C103.116 46.6394 104.094 46.0377 105.066 45.0668C106.037 44.0959 106.639 43.1182 107.083 41.9695C107.514 40.8551 107.815 39.5833 107.897 37.7236C107.979 35.857 108 35.2622 108 30.5103C108 25.7584 107.979 25.1635 107.897 23.2969C107.815 21.4372 107.514 20.1586 107.083 19.051C106.653 17.8887 106.057 16.9109 105.079 15.94C104.108 14.9691 103.13 14.3675 101.981 13.923C100.866 13.4923 99.5937 13.1914 97.7332 13.1094C95.8591 13.0205 95.264 13 90.5103 13Z" fill="black"/>
<path d="M90.5102 21.5125C85.5444 21.5125 81.5156 25.5396 81.5156 30.5035C81.5156 35.4673 85.5444 39.4945 90.5102 39.4945C95.476 39.4945 99.5047 35.4673 99.5047 30.5035C99.5047 25.5396 95.476 21.5125 90.5102 21.5125ZM90.5102 36.3357C87.2885 36.3357 84.6757 33.7238 84.6757 30.5035C84.6757 27.2831 87.2885 24.6713 90.5102 24.6713C93.7318 24.6713 96.3446 27.2831 96.3446 30.5035C96.3446 33.7238 93.7318 36.3357 90.5102 36.3357Z" fill="black"/>
<path d="M101.96 21.1568C101.96 22.3191 101.017 23.2558 99.8606 23.2558C98.6978 23.2558 97.7607 22.3123 97.7607 21.1568C97.7607 19.9944 98.7047 19.0577 99.8606 19.0577C101.017 19.0577 101.96 20.0013 101.96 21.1568Z" fill="black"/>
<circle cx="150" cy="30" r="30" fill="#FC8E8E"/>
<path d="M167.651 22.5001C167.651 22.5001 167.31 20.087 166.257 19.0275C164.924 17.6329 163.434 17.6261 162.75 17.5441C157.855 17.1886 150.507 17.1886 150.507 17.1886H150.493C150.493 17.1886 143.145 17.1886 138.25 17.5441C137.566 17.6261 136.076 17.6329 134.743 19.0275C133.69 20.087 133.355 22.5001 133.355 22.5001C133.355 22.5001 133 25.337 133 28.1671V30.8195C133 33.6495 133.349 36.4864 133.349 36.4864C133.349 36.4864 133.69 38.8995 134.736 39.9591C136.069 41.3536 137.819 41.3058 138.599 41.4562C141.401 41.7228 150.5 41.8048 150.5 41.8048C150.5 41.8048 157.855 41.7911 162.75 41.4425C163.434 41.3605 164.924 41.3536 166.257 39.9591C167.31 38.8995 167.651 36.4864 167.651 36.4864C167.651 36.4864 168 33.6564 168 30.8195V28.1671C168 25.337 167.651 22.5001 167.651 22.5001ZM146.884 34.0392V24.2023L156.338 29.1378L146.884 34.0392Z" fill="black"/>
<circle cx="210" cy="30" r="30" fill="#FFEF9C"/>
<circle cx="209.5" cy="29.5" r="17.5" fill="black"/>
<rect x="200.75" y="20.1145" width="18.0469" height="18.0469" fill="white"/>
<path d="M198.493 18.0321C198.857 18.0101 199.223 18.0101 199.587 18.0321H220.199C220.304 18.0181 220.412 18.028 220.513 18.0611C220.614 18.0942 220.707 18.1497 220.784 18.2235C221.057 18.5024 220.959 18.918 220.975 19.268C220.975 26.2826 220.975 33.3008 220.975 40.3227C220.973 40.419 220.951 40.5137 220.909 40.6007C220.868 40.6877 220.809 40.765 220.735 40.8274C220.662 40.8899 220.576 40.9363 220.484 40.9633C220.391 40.9903 220.294 40.9975 220.199 40.9844H198.685C198.596 40.9882 198.508 40.9738 198.426 40.9419C198.344 40.9101 198.269 40.8616 198.206 40.7994C198.144 40.7373 198.095 40.6628 198.062 40.5808C198.03 40.4987 198.014 40.4109 198.017 40.3227V18.6992C198.006 18.5499 198.048 18.4014 198.135 18.2795C198.221 18.1576 198.348 18.07 198.493 18.0321V18.0321ZM203.202 23.7414C203.202 27.5695 203.202 31.3977 203.202 35.2258H207.511C207.511 33.3281 207.484 31.3976 207.511 29.5273C207.982 30.1836 208.414 30.8726 208.895 31.5234C209.699 32.7703 210.607 33.9461 211.378 35.2148C212.821 35.2531 214.265 35.2148 215.714 35.2148C215.714 35.0344 215.742 34.8539 215.742 34.668C215.742 31.0148 215.742 27.3562 215.742 23.7305C214.309 23.7305 212.882 23.7305 211.454 23.7305C211.454 25.6391 211.454 27.5586 211.454 29.4562C210.125 27.5695 208.873 25.6281 207.511 23.7578C206.078 23.6977 204.624 23.7414 203.202 23.7414V23.7414Z" fill="black"/>
<path d="M200.775 19.1094H218.23C218.67 19.1094 219.093 19.2844 219.404 19.5959C219.716 19.9074 219.891 20.3299 219.891 20.7705V38.2246C219.891 38.4434 219.848 38.66 219.764 38.8621C219.68 39.0643 219.557 39.2479 219.403 39.4026C219.248 39.5574 219.064 39.6801 218.862 39.7638C218.66 39.8475 218.443 39.8906 218.225 39.8906H200.775C200.557 39.8906 200.34 39.8475 200.138 39.7638C199.936 39.6801 199.752 39.5574 199.597 39.4026C199.443 39.2479 199.32 39.0643 199.236 38.8621C199.152 38.66 199.109 38.4434 199.109 38.2246V20.7705C199.111 20.3295 199.287 19.907 199.599 19.5956C199.911 19.2842 200.334 19.1094 200.775 19.1094V19.1094Z" fill="black"/>
<path d="M209.551 20.446C204.106 20.446 199.715 23.9587 199.715 28.223C199.715 30.991 201.542 33.4147 204.282 34.7987L203.354 38.2622C203.337 38.3141 203.334 38.3698 203.347 38.4232C203.359 38.4765 203.386 38.5254 203.425 38.5643C203.481 38.6139 203.553 38.6414 203.628 38.6415C203.691 38.6365 203.75 38.612 203.797 38.5713L207.787 35.8806C208.376 35.9619 208.97 36.0041 209.565 36.007C215.002 36.007 219.4 32.4944 219.4 28.223C219.4 23.9516 214.988 20.446 209.551 20.446Z" fill="white"/>
<path d="M203.157 26.9935H202.083C201.949 26.9974 201.818 26.9633 201.703 26.8951C201.652 26.8633 201.609 26.8212 201.575 26.7717C201.541 26.7221 201.518 26.6661 201.506 26.6071C201.503 26.5697 201.503 26.5321 201.506 26.4947C201.503 26.4248 201.517 26.355 201.546 26.2914C201.575 26.2278 201.62 26.1723 201.675 26.1294C201.798 26.0407 201.945 25.9939 202.097 25.9959H205.335C205.47 25.9912 205.602 26.028 205.715 26.1013C205.767 26.1317 205.811 26.1734 205.845 26.2232C205.879 26.273 205.902 26.3298 205.911 26.3893C205.915 26.4244 205.915 26.4597 205.911 26.4947C205.915 26.5657 205.901 26.6364 205.872 26.7012C205.842 26.7659 205.798 26.8227 205.743 26.867C205.623 26.9556 205.477 27.0003 205.328 26.9935H204.288V30.6888C204.293 30.7676 204.281 30.8463 204.253 30.92C204.225 30.9938 204.182 31.061 204.127 31.1174C204.074 31.1712 204.01 31.2135 203.94 31.2413C203.87 31.2691 203.795 31.2819 203.719 31.2789C203.587 31.2827 203.458 31.2405 203.354 31.1596C203.255 31.0805 203.188 30.9682 203.164 30.8434C203.157 30.7921 203.157 30.7401 203.164 30.6888L203.157 26.9935Z" fill="black"/>
<path d="M206.221 26.2699C206.252 26.1543 206.325 26.0542 206.425 25.9889C206.532 25.9283 206.654 25.8991 206.776 25.9046H207.043C207.173 25.8999 207.302 25.9315 207.416 25.9959C207.536 26.0766 207.621 26.1995 207.654 26.3401L209.059 30.3095C209.096 30.413 209.126 30.5186 209.151 30.6257C209.153 30.6701 209.153 30.7146 209.151 30.7591C209.153 30.8276 209.141 30.8957 209.114 30.9588C209.087 31.0219 209.047 31.0784 208.996 31.1244C208.947 31.1749 208.888 31.2146 208.823 31.2412C208.757 31.2678 208.687 31.2806 208.617 31.279C208.508 31.2897 208.4 31.2637 208.308 31.2051C208.216 31.1465 208.147 31.0587 208.111 30.9558L207.816 30.0917H205.968L205.673 30.9558C205.638 31.0607 205.568 31.1502 205.475 31.2092C205.381 31.2681 205.27 31.2927 205.16 31.279C205.042 31.2821 204.925 31.2449 204.83 31.1736C204.738 31.0999 204.675 30.995 204.655 30.8786C204.651 30.8388 204.651 30.7988 204.655 30.7591C204.642 30.6894 204.642 30.6181 204.655 30.5484C204.655 30.4711 204.704 30.3867 204.732 30.3095L206.221 26.2699ZM206.924 27.1903L206.256 29.2979H207.584L206.924 27.1903Z" fill="black"/>
<path d="M209.312 26.4948C209.305 26.3372 209.36 26.1831 209.466 26.0663C209.52 26.0119 209.585 25.9693 209.656 25.9415C209.728 25.9137 209.804 25.9011 209.881 25.9046C210.012 25.9031 210.141 25.9451 210.246 26.0241C210.344 26.1065 210.408 26.2211 210.429 26.3472C210.436 26.3962 210.436 26.4459 210.429 26.4948V30.1901H212.361C212.495 30.1884 212.626 30.2249 212.74 30.2955C212.791 30.327 212.835 30.369 212.869 30.4186C212.903 30.4682 212.926 30.5244 212.937 30.5835C212.937 30.5835 212.937 30.6538 212.937 30.6889C212.94 30.7589 212.926 30.8286 212.897 30.8922C212.868 30.9558 212.824 31.0114 212.768 31.0542C212.646 31.1429 212.498 31.1897 212.347 31.1877H209.972C209.821 31.1974 209.67 31.1581 209.543 31.0753C209.43 30.9904 209.354 30.8643 209.333 30.7241C209.328 30.6469 209.328 30.5694 209.333 30.4922L209.312 26.4948Z" fill="black"/>
<path d="M213.063 26.4949C213.059 26.3377 213.114 26.1847 213.218 26.0664C213.323 25.9707 213.458 25.9142 213.6 25.9066C213.742 25.8989 213.883 25.9404 213.998 26.0242C214.098 26.1059 214.165 26.2205 214.188 26.3473C214.191 26.3965 214.191 26.4458 214.188 26.4949V28.2161L215.965 26.1647C216.033 26.0947 216.106 26.0291 216.183 25.968C216.255 25.9251 216.338 25.9031 216.422 25.9047C216.544 25.9041 216.664 25.9409 216.766 26.0101C216.814 26.0423 216.854 26.0838 216.886 26.1321C216.917 26.1804 216.938 26.2345 216.948 26.2912C216.951 26.3051 216.951 26.3195 216.948 26.3334C216.945 26.3496 216.945 26.3663 216.948 26.3825C216.948 26.4564 216.929 26.5291 216.892 26.5933C216.855 26.6613 216.81 26.7249 216.759 26.7829L215.593 28.0616L216.998 30.2394V30.3096C217.071 30.4103 217.127 30.5218 217.166 30.6399V30.675C217.174 30.7564 217.163 30.8385 217.132 30.9144C217.101 30.9903 217.053 31.0575 216.991 31.1105C216.873 31.1991 216.73 31.2461 216.583 31.2441C216.486 31.2481 216.389 31.2262 216.302 31.1808C216.209 31.118 216.131 31.0337 216.077 30.9349L214.771 28.8273L214.145 29.4807V30.6539C214.15 30.8111 214.094 30.9641 213.991 31.0824C213.935 31.1367 213.869 31.179 213.797 31.2068C213.724 31.2346 213.647 31.2473 213.569 31.2441C213.44 31.2468 213.313 31.2045 213.211 31.1246C213.112 31.0455 213.044 30.9333 213.021 30.8085C213.014 30.7572 213.014 30.7052 213.021 30.6539L213.063 26.4949Z" fill="black"/>
<circle cx="270" cy="30" r="30" fill="#C0F0FF"/>
<g clip-path="url(#clip2_1733_6314)">
<path d="M263.011 43.7188C276.215 43.7188 283.439 32.7765 283.439 23.2903C283.439 22.9827 283.432 22.6682 283.419 22.3606C284.824 21.3443 286.037 20.0855 287 18.6432C285.691 19.2255 284.302 19.6059 282.879 19.7712C284.377 18.8731 285.499 17.4622 286.036 15.8002C284.627 16.6355 283.085 17.2247 281.478 17.5426C280.395 16.392 278.963 15.6301 277.404 15.3747C275.844 15.1194 274.244 15.385 272.851 16.1302C271.458 16.8755 270.348 18.059 269.695 19.4978C269.042 20.9366 268.881 22.5506 269.237 24.0901C266.383 23.9469 263.591 23.2055 261.042 21.914C258.493 20.6225 256.243 18.8097 254.44 16.5931C253.523 18.1736 253.243 20.0437 253.655 21.8236C254.068 23.6034 255.143 25.1593 256.661 26.1751C255.521 26.1389 254.406 25.8319 253.408 25.2796V25.3684C253.407 27.027 253.981 28.6347 255.031 29.9183C256.081 31.2019 257.544 32.0822 259.17 32.4094C258.113 32.6984 257.005 32.7405 255.93 32.5325C256.389 33.9589 257.281 35.2064 258.483 36.101C259.685 36.9956 261.137 37.4926 262.635 37.5227C260.091 39.5205 256.95 40.604 253.716 40.5989C253.142 40.598 252.569 40.5629 252 40.4936C255.285 42.6014 259.107 43.7209 263.011 43.7188Z" fill="black"/>
</g>
<circle cx="330" cy="30" r="30" fill="#ADE9B3"/>
<g clip-path="url(#clip3_1733_6314)">
<path d="M339.004 47H319.996C315.595 47 312 43.3973 312 39.004V19.996C312 15.6027 315.603 12 319.996 12H339.004C343.405 12 347 15.6027 347 19.996V39.004C347 43.4054 343.405 47 339.004 47Z" fill="black"/>
<path fill-rule="evenodd" clip-rule="evenodd" d="M337.822 19.0179H321.064C318.692 19.0179 316.76 20.9579 316.76 23.3216V33.7385C316.76 36.1104 318.7 38.0422 321.064 38.0422H326.981L328 39.8028L329.003 41.5389C329.182 41.8568 329.639 41.8568 329.826 41.5389L330.829 39.8028L331.848 38.0422H337.83C340.202 38.0422 342.134 36.1022 342.134 33.7385V23.3298C342.134 20.9579 340.194 19.0179 337.822 19.0179ZM330.617 26.6472C329.321 26.6472 328.269 27.6824 328.269 28.9621C328.269 30.2417 329.321 31.2769 330.617 31.2769C331.913 31.2769 332.964 30.2417 332.964 28.9621C332.964 27.6824 331.921 26.6472 330.617 26.6472ZM330.617 30.0706C329.997 30.0706 329.492 29.5734 329.492 28.9621C329.492 28.3507 329.997 27.8535 330.617 27.8535C331.236 27.8535 331.742 28.3507 331.742 28.9621C331.742 29.5734 331.244 30.0706 330.617 30.0706ZM321.846 27.177C322.213 26.8428 322.686 26.6472 323.191 26.6472C324.365 26.6472 325.302 27.6905 325.302 28.9702C325.302 30.2499 324.357 31.2851 323.191 31.2851C322.678 31.2851 322.213 31.0813 321.846 30.7553V31.171H320.542V25.2615H321.846V27.177ZM321.855 29.4185C322.034 29.8342 322.45 30.1195 322.93 30.1195C323.583 30.1195 324.104 29.606 324.104 28.9621C324.104 28.3181 323.583 27.8046 322.93 27.8046C322.45 27.8046 322.034 28.0899 321.855 28.5056C321.789 28.6442 321.757 28.799 321.757 28.9621C321.757 29.1251 321.797 29.2799 321.855 29.4185ZM337.032 26.745V27.1118C336.665 26.8265 336.208 26.6554 335.719 26.6554C334.521 26.6554 333.551 27.6579 333.551 28.8887C333.551 30.1195 334.521 31.1221 335.719 31.1221C336.216 31.1221 336.673 30.9509 337.032 30.6656V31.2851C337.032 31.2851 336.901 31.8964 335.988 31.8964V33.0457C335.988 33.0457 336.974 33.1598 337.855 32.2795C337.855 32.2795 338.262 31.8475 338.352 31.2769V26.745H337.032ZM335.964 30.0217C335.304 30.0217 334.774 29.5082 334.774 28.8806C334.774 28.253 335.312 27.7394 335.964 27.7394C336.428 27.7394 336.836 28.0003 337.032 28.3752C337.113 28.5301 337.154 28.7013 337.154 28.8806C337.154 29.0599 337.105 29.2392 337.032 29.3859C336.836 29.769 336.428 30.0217 335.964 30.0217ZM325.449 26.3293V25.1474C325.449 25.1474 326.313 25.0333 327.079 25.9381C327.079 25.9381 327.43 26.3782 327.511 26.9651V26.9977V31.1709H326.166V26.9977C326.052 26.4108 325.449 26.3293 325.449 26.3293Z" fill="white"/>
</g>
</g>
<defs>
<clipPath id="clip0_1733_6314">
<rect width="360" height="60" fill="white"/>
</clipPath>
<clipPath id="clip1_1733_6314">
<rect width="35" height="35" fill="white" transform="translate(13 13)"/>
</clipPath>
<clipPath id="clip2_1733_6314">
<rect width="35" height="35" fill="white" transform="translate(252 12)"/>
</clipPath>
<clipPath id="clip3_1733_6314">
<rect width="35" height="35" fill="white" transform="translate(312 12)"/>
</clipPath>
</defs>
</svg>
